inDegrees=yes
name=ik_Xsens_quaternion
DataType=double
version=3
OpenSimVersion=4.4-2022-07-23-0e9fedc
endheader
time	pelvis_tilt	pelvis_list	pelvis_rotation	pelvis_tx	pelvis_ty	pelvis_tz	hip_flexion_r	hip_adduction_r	hip_rotation_r	knee_angle_r	knee_angle_r_beta	ankle_angle_r	subtalar_angle_r	mtp_angle_r	hip_flexion_l	hip_adduction_l	hip_rotation_l	knee_angle_l	knee_angle_l_beta	ankle_angle_l	subtalar_angle_l	mtp_angle_l	lumbar_extension	lumbar_bending	lumbar_rotation	arm_flex_r	arm_add_r	arm_rot_r	elbow_flex_r	pro_sup_r	wrist_flex_r	wrist_dev_r	arm_flex_l	arm_add_l	arm_rot_l	elbow_flex_l	pro_sup_l	wrist_flex_l	wrist_dev_l
15.11666666666667	0	0	0	0	0.93	0	0	0	0	1.871482625637715e-39	3.782545608430505e-41	0	0	0	0	0	0	1.091296772837571e-38	3.782545608430505e-41	0	0	0	0	0	0	-558649.2526326196	-2755853.034534093	156511.1820720062	-926938.7063250679	-851980.3349372589	0	0	242024.1738632473	-1779164.643905046	4653731.923288975	572937.3144546432	1297622.41413527	0	0
15.13333333333333	0	0	0	0	0.93	0	0	0	0	0	-1.651477501970155e-41	0	0	0	0	0	0	0	-1.651477501970155e-41	0	0	0	0	0	0	-558650.5488961426	-2755853.323721681	156510.3411851456	-926939.7494620485	-851981.6690849762	0	0	242023.1666775676	-1779164.975091284	4653730.232988329	572939.4240326073	1297620.954431219	0	0
15.15	0	0	0	0	0.93	0	0	0	0	0	0	0	0	0	0	0	0	1.326240211606767e-39	0	0	0	0	0	0	0	-558651.9765802124	-2755853.707982486	156509.4435879314	-926940.8771218618	-851983.0432092014	0	0	242022.4551822795	-1779165.163543888	4653729.144351696	572940.9493639915	1297619.983737497	0	0
15.16666666666667	4.946394091627628e-29	-2.450262836976504e-27	-1.072108804569017e-26	-1.666799376710165e-25	0.93	2.662045638536614e-25	3.690483990618918e-17	-1.330619245700112e-17	5.243322796080376e-17	7.962522022191429e-15	1.389722228079055e-16	-5.234837916354078e-24	2.634395503885284e-25	-3.575412917154249e-22	-1.744439662310419e-16	-2.38518494463244e-17	-5.506783369918302e-17	7.95648758165867e-15	1.388669027490623e-16	1.296258037012737e-24	1.034669947898026e-26	-2.590650563012042e-22	2.130504489795067e-17	-3.48617745336059e-16	-1.901941426830047e-16	-558653.2434984507	-2755853.976371909	156508.6115844277	-926941.7759367656	-851984.1569363101	1.388590984576169e-21	-8.629484495003501e-21	242021.5139420096	-1779165.366222407	4653727.627860392	572942.8402153371	1297618.620134194	-5.789593742402009e-22	6.174272899546459e-21
15.18333333333333	6.740888042449262e-27	6.498971468695747e-19	-2.451568560116938e-27	-2.618203633263781e-27	0.93	-1.159395521676454e-26	3.663887063811167e-34	2.600316472687344e-24	-2.720040639781882e-33	1.677922624920735e-16	2.928680498329421e-18	-1.116727555010935e-19	-5.13093182512296e-20	-3.152499368159272e-19	1.774702845209878e-23	6.244772216113444e-33	-4.626433644036874e-23	1.787804902398914e-16	3.120307347027565e-18	1.344039739697707e-19	-3.778390514044599e-25	6.344350069234094e-20	9.233189198877539e-27	-4.312236981150588e-26	3.904733944655641e-23	-558654.3766068466	-2755854.132004183	156507.8259390647	-926942.4936288964	-851985.0910815968	-4.287257324459607e-20	1.471269752964079e-19	242020.4293388207	-1779165.557436432	4653725.889841969	572944.9010629378	1297617.082000136	2.574355533970253e-21	2.164363374217443e-21
15.2	0	0	0	0	0.93	0	0	0	0	0	0	0	0	0	0	0	0	0	0	0	0	0	0	0	0	-558655.4212436761	-2755854.191562384	156507.0469757087	-926943.0994744268	-851985.9348060928	0	0	242019.333728443	-1779165.669809962	4653724.137148215	572946.9288668367	1297615.54523856	0	0
15.21666666666667	0	0	0	0	0.93	0	0	0	0	0	-4.557996895005699e-41	0	0	0	0	0	0	1.052357267868557e-38	-5.524324366132739e-41	0	0	0	0	0	0	-558656.4581749619	-2755854.153492535	156506.2593631312	-926943.5930568156	-851986.7873408911	0	0	242018.2064537173	-1779165.723249449	4653722.443766645	572948.8982955613	1297614.134159029	0	0
15.23333333333333	0	0	0	0	0.93	0	0	0	0	0	4.213956387091333e-41	0	0	0	0	0	0	0	0	0	0	0	0	0	0	-558657.3258587882	-2755853.986700216	156505.5074368233	-926943.874295367	-851987.3564099906	0	0	242017.1346446595	-1779165.729169169	4653720.903055673	572950.6986462369	1297612.829573468	0	0
15.25	0	0	0	0	0.93	0	0	0	0	2.60295206534073e-40	0	0	0	0	0	0	0	0	0	0	0	0	0	0	0	-558658.1100297269	-2755853.696421494	156504.7941715407	-926943.9043156334	-851987.8190531706	0	0	242016.1173300394	-1779165.70647536	4653719.594755205	572952.3291445131	1297611.821325205	0	0
15.26666666666667	0	0	0	0	0.93	0	0	0	0	0	0	0	0	0	0	0	0	1.989029754651606e-39	0	0	0	0	0	0	0	-558658.9232146546	-2755853.414365745	156504.0734582951	-926943.96810052	-851988.2195968581	0	0	242015.1127605586	-1779165.638761539	4653718.240994629	572953.9860123125	1297610.720772378	0	0
15.28333333333333	0	0	0	0	0.93	0	0	0	0	0	0	0	0	0	0	0	0	1.052357267868557e-38	0	0	0	0	0	0	0	-558659.952017226	-2755853.246096001	156503.2861236298	-926944.2348574843	-851988.7766108169	0	0	242014.1047569879	-1779165.527349175	4653716.870306428	572955.6134501895	1297609.606714774	0	0
15.3	1.585687999485581e-24	-9.707194590287054e-16	-1.376710092554382e-24	-1.263800348089436e-23	0.93	-4.474797503037288e-23	-4.07338032388418e-33	-1.140661347326861e-21	1.703875146337945e-32	1.926327216467101e-17	6.202273644823312e-19	1.933204096802285e-18	3.431455492709484e-19	-2.911788602761069e-16	-5.206799309304159e-22	-5.240974922013414e-32	4.799831866060877e-22	0	-9.313139009682488e-19	-3.123693829731654e-18	-1.825859668298729e-23	-5.792111236757176e-17	2.201312466352563e-24	1.011358011304925e-23	-2.140010511247032e-24	-558661.0860138601	-2755853.17067315	156502.5432422378	-926944.6510180908	-851989.4950511369	-4.881154088470546e-19	-3.080720100575655e-16	242013.0742817486	-1779165.37894752	4653715.457986654	572957.3017252393	1297608.444076108	-9.593675089929877e-17	2.808376378614947e-16
15.31666666666667	0	0	0	0	0.93	0	0	0	0	0	0	0	0	0	0	0	0	0	0	0	0	0	0	0	0	-558662.4441643317	-2755853.193597301	156501.7435812058	-926945.2526276291	-851990.4129834721	0	0	242012.0516428849	-1779165.197822804	4653714.111699256	572958.9348208327	1297607.360177503	0	0
15.33333333333333	0	0	0	0	0.93	0	0	0	0	0	0	0	0	0	0	0	0	0	0	0	0	0	0	0	0	-558663.989777773	-2755853.328726023	156500.9068891869	-926946.1213034715	-851991.5707430113	0	0	242011.2188503644	-1779165.007005478	4653713.075286782	572960.2677081627	1297606.510413441	0	0
15.35	3.08377688999251e-24	-1.820055115350526e-15	4.847449472296877e-25	-6.275082241046422e-18	0.93	-3.190680931751851e-18	3.103527865816518e-33	-5.517382872562698e-33	-2.379069766678897e-23	0	9.813390442571712e-19	2.619015952364718e-19	2.580326362247972e-23	5.155301875847943e-17	-1.210868726522888e-16	4.400959167190759e-16	1.163563831266204e-17	0	5.182381489577986e-17	5.132195876133968e-19	-2.760489346730821e-21	-1.446040158543861e-17	1.269222432726607e-15	-1.997867282044981e-16	3.708429083796373e-16	-558665.0733562809	-2755853.244021602	156500.2354901525	-926946.54176355	-851992.283115827	1.076457434795578e-17	3.247085593517489e-20	242009.8668102241	-1779164.626262368	4653711.059343645	572962.545198805	1297604.748097113	-3.321585564724055e-19	-1.358689086163893e-19
15.36666666666667	0	0	0	0	0.93	0	0	0	0	0	0	0	0	0	0	0	0	0	0	0	0	0	0	0	0	-558666.0442969318	-2755853.079763432	156499.5955337604	-926946.8849155298	-851992.9553495531	0	0	242008.7590174426	-1779164.257737855	4653709.497314206	572964.390364718	1297603.376870331	0	0
15.38333333333333	2.602307080977862e-27	-5.536905235282545e-26	-4.032391341687482e-27	4.584709394720045e-28	0.93	3.88523355840878e-27	-3.739320032771985e-33	-1.225601858138881e-24	-2.16554951123918e-31	9.935682988344237e-16	1.734235379658872e-17	-1.304383633741647e-19	-3.030425474295069e-19	3.462823286842096e-26	5.713911732682128e-23	-5.572879985441014e-32	6.400541256326836e-24	1.025387470399764e-15	1.789638381066505e-17	7.799452805060623e-18	-2.404712703326344e-25	-4.528489374463535e-26	-6.905629163786105e-27	2.387479157923894e-26	-2.389114449024719e-23	-558666.6803708867	-2755852.785115669	156499.0408493342	-926946.9069404626	-851993.2374524284	3.611002500690295e-25	2.19472276641147e-26	242007.4534682375	-1779163.704528918	4653707.47200054	572966.7214751347	1297601.500229752	3.101634520709969e-25	8.733005199247924e-26
15.4	0	0	0	0	0.93	0	0	0	0	0	2.27765981067077e-41	0	0	0	0	0	0	0	-4.178222167374428e-40	0	0	0	0	0	0	-558667.455699031	-2755852.575033271	156498.4501043849	-926947.0640570753	-851993.6313871893	0	0	242006.2639242564	-1779163.107181244	4653705.618644596	572968.9585952971	1297599.690279534	0	0
15.41666666666667	-1.057956867159904e-24	-2.104274533903829e-15	1.469790513459004e-24	-6.709264410168996e-24	0.93	7.825031017865381e-24	7.84885540297057e-34	5.697727343233553e-22	0	5.119098861407707e-16	8.958035919329437e-18	-1.474016783020941e-18	3.670442754869647e-19	2.895855912782337e-16	1.964052292523652e-22	1.05568440060665e-31	-1.300271745415605e-19	5.043711378971913e-16	8.801294220778806e-18	-5.029025929429603e-21	-1.435949450605679e-23	8.630252671450126e-16	-1.057956867159904e-24	-5.758254562819272e-24	7.034645265506748e-26	-558668.4415773026	-2755852.449881487	156497.8261193985	-926947.4073040029	-851994.2051709545	-6.08317793586459e-18	4.806266310482383e-16	242005.2325269404	-1779162.512641347	4653704.07295971	572970.9027644629	1297598.118342279	-7.891147340169299e-18	1.053668033352515e-18
15.43333333333333	0	0	0	0	0.93	0	0	0	0	0	-3.627103638372306e-41	0	0	0	0	0	0	1.052357267868557e-38	-9.646711695272549e-42	0	0	0	0	0	0	-558669.40332375	-2755852.326505606	156497.2365073957	-926947.7414782096	-851994.7321968712	0	0	242004.2501969883	-1779161.869635297	4653702.60992869	572972.8469942647	1297596.551528302	0	0
